<svg xmlns="http://www.w3.org/2000/svg" xmlns:xlink="http://www.w3.org/1999/xlink" viewBox="0,0,256,256" width="512px" height="512px" fill-rule="nonzero"><g fill="#8a8efa" fill-rule="nonzero" stroke="none" stroke-width="1" stroke-linecap="butt" stroke-linejoin="miter" stroke-miterlimit="10" stroke-dasharray="" stroke-dashoffset="0" font-family="none" font-weight="none" font-size="none" text-anchor="none" style="mix-blend-mode: normal"><g><path d="M17,11.5c-0.5,0 -0.99922,0.40039 -1.19922,0.90039c-0.2,0.5 -0.10039,0.99922 0.09961,1.19922c0.1,0.2 0.4,0.60117 1,0.70117l15.59961,2.69922c0.8,0.1 1.39961,0.7 1.59961,1.5c0.2,0.8 -0.09922,1.59961 -0.69922,2.09961l-2.40039,2c0,0 -0.1,-0.00039 0,0.09961l0.09961,0.10156h0.09961l12.20117,-6.5c0.4,-0.2 0.90039,-0.30117 1.40039,-0.20117l21.69922,5c0.6,0.1 1.09922,0.20078 1.69922,0.30078l18.20117,2.59961c0.4,0 0.7,0.20039 1,0.40039l34.19922,25.90039l21.90039,4c-2.3,-2.2 -4.69922,-4.30039 -7.19922,-6.40039c-3,-2.4 -5.80039,-5.10039 -8.90039,-7.90039c-7.7,-7 -15.60078,-14.20078 -24.30078,-17.80078c-4.9,-2 -9.10039,-3.59883 -12.40039,-4.79883c-11.7,-4.2 -45.99883,-4.20117 -46.29883,-4.20117h-0.09961zM99,44.40039l-4.59961,1.19922c-0.2,0 -0.3,0.09961 -0.5,0.09961c-0.1,0 -4.90078,0.00117 -9.30078,0.20117c0.1,5 1.20078,19.59961 10.80078,30.59961c3.3,-0.8 5.69922,-2.10039 7.19922,-3.90039c1.8,-2 3.59961,-4.2 4.59961,-6.5c1,-2.2 4.00156,-9.79922 1.60156,-14.19922c-0.6,-1.1 -4.30078,-2.40039 -7.30078,-2.90039c-0.8,-0.1 -1.49922,-0.7 -1.69922,-1.5zM80.40039,46.30078c-3,0.3 -6.59961,2.69883 -8.09961,5.29883c-2.8,4.8 -3.50117,10.8 -1.70117,15.5c2.1,5.6 9.1,10.5 15,10.5c1.8,0 3.49961,-0.09922 5.09961,-0.19922c-9,-11.6 -10.19883,-25.69961 -10.29883,-31.09961zM121.80078,54.59961l-1.60156,2.5c4.3,4.1 5.20117,10.90039 1.70117,15.90039l-0.70117,1.09961c-2.9,4.3 -8.1,6.19961 -13,5.09961l-1.69922,6.30078l17.59961,16.40039c3.2,3 5.50039,6.69883 6.90039,10.79883c3.9,0.4 15.59961,1.30078 24.59961,-1.19922c8.5,-2.4 16.7,-6.49922 20,-8.19922c-0.4,-1.1 -0.69961,-2.30039 -1.09961,-3.40039c-1.5,-4.7 -5.09961,-11.7 -10.59961,-20.5c-4.4,-7.1 -9.60078,-13.70078 -15.30078,-19.80078zM117,59.69922l-3.69922,0.70117c-0.6,3 -1.60078,5.69883 -2.30078,7.29883c-0.8,1.7 -1.8,3.30078 -3,4.80078l0.59961,2.5c3.4,1.1 7.20117,-0.19922 9.20117,-3.19922l0.69922,-1.10156c2.4,-3.5 1.7,-8.2 -1.5,-11zM67.80078,71c-2.4,1.6 -3.60078,4.49961 -2.80078,7.09961c1,3.5 4.69922,5.59961 8.19922,4.59961c1.9,-0.5 3.50039,-1.6 4.40039,-3c-4,-1.9 -7.59883,-5.09922 -9.79883,-8.69922zM104.59961,89.5l-5.5,9l-11.19922,33.5l-0.30078,0.59961l-11.29883,15.59961l-15.60156,25.20117c-0.1,0.2 -0.19844,0.3 -0.39844,0.5l-18.90039,16.5c-0.1,0.1 -0.19961,0.20039 -0.09961,0.40039l0.19922,0.19922c0.1,0 0.20078,0.1 0.30078,0l9.39844,-4c0.8,-0.3 1.80039,-0.1 2.40039,0.5c0.6,0.6 0.70078,1.50078 0.30078,2.30078c0.3,-0.3 0.49922,-0.50078 0.69922,-0.80078l10.59961,-14.30078l0.10156,-0.09961l21.59961,-25.09961l14.59961,-23.90039c1.1,-1.9 2.2,-3.80039 3,-5.90039l9.30078,-21.69922zM176.80078,107.30078c-3.7,2 -11.60156,5.79922 -20.10156,8.19922c-5.2,1.4 -11.09922,1.80078 -16.19922,1.80078c-3.4,0 -6.4,-0.20039 -8.5,-0.40039c0.4,2.8 0.30078,5.7 -0.19922,8.5c5.1,0.9 18.29961,2.90039 28.09961,1.40039c8.2,-1.3 16.9,-6.70117 20,-8.70117c-1,-3.6 -1.99961,-7.19883 -3.09961,-10.79883zM180.5,122.59961c-4.2,2.6 -12.1,7.00078 -20,8.30078c-10.8,1.7 -24.90039,-0.6 -29.90039,-1.5c-0.4,1 -0.79883,2.1 -1.29883,3l-0.5,1c-1.9,3.6 -4.70156,6.7 -8.10156,9l-8.59961,5.90039c-3.8,2.6 -7.39883,5.4 -10.79883,8.5l-22.70117,20.5c-0.2,0.1 -0.3,0.29844 -0.5,0.39844l-7.90039,3.5l10.70117,11.20117l2.5,-1.09961l26.69922,-11.20117c7,-2.9 13.60117,-6.59961 19.70117,-11.09961l23.69922,-17.09961c10.9,4.4 44.4,16.69922 64,19.19922l0.59961,9c2.6,0.9 9.80078,2.4 18.80078,-2.5l1.5,-14.40039c0.1,-0.4 -0.10039,-1 -0.40039,-1.5c-5.2,-6.3 -11.90078,-11.39922 -19.30078,-14.69922l-36.5,-16c-0.7,-0.3 -1.19922,-0.99922 -1.19922,-1.69922zM236.40039,182.59961c-4.6,2 -8.69961,2.70117 -12.09961,2.70117c-2.4,0 -4.30039,-0.30117 -5.90039,-0.70117l4.09961,48.40039c0,0.3 0.00039,0.50078 -0.09961,0.80078l-0.90039,2.89844c-0.4,1.3 -0.30078,2.7 0.19922,4c0.9,2.2 3.00039,3.60156 5.40039,3.60156h22.90039c1.1,0 2,-0.9 2,-2c0.3,-0.9 -0.29961,-1.60039 -1.09961,-1.90039l-18.09961,-6c-0.9,-0.3 -1.50039,-1.20117 -1.40039,-2.20117zM66.19922,183l-3.09961,1.30078l-5.19922,7c-1.3,1.7 -3,3.09844 -5,3.89844c-0.4,0.2 -0.90078,0.30078 -1.30078,0.30078c-0.9,0 -1.9,-0.39961 -2.5,-1.09961c-0.4,-0.5 -0.69883,-1.10117 -0.79883,-1.70117l-4.90039,2.10156l-0.90039,0.29883l-25.30078,27.09961l-0.19922,0.20117l-11.40039,9.09961c-0.2,0.2 -0.39961,0.3 -0.59961,0.5c-0.3,0.2 -0.60078,0.49922 -0.80078,0.69922c-1,1.1 -0.99961,2.80078 -0.59961,5.30078c0,0.2 0.09961,0.39961 0.09961,0.59961c0.1,0.5 0.2,1.59961 0.5,2.09961c1.9,0.2 8.30117,-0.29844 10.20117,-0.89844c0.1,-0.2 0.19922,-0.60156 0.19922,-1.10156c0.2,-1.7 1.40039,-9.19922 1.90039,-10.19922c0.2,-0.3 0.39922,-0.60078 0.69922,-0.80078l31.20117,-20.19922c4.1,-2.6 8.39883,-4.90078 12.79883,-6.80078l15.60156,-6.59961z"></path></g></g></svg>