<svg xmlns="http://www.w3.org/2000/svg" xmlns:xlink="http://www.w3.org/1999/xlink" viewBox="0,0,256,256" width="512px" height="512px" fill-rule="nonzero"><g fill="#8a8efa" fill-rule="nonzero" stroke="none" stroke-width="1" stroke-linecap="butt" stroke-linejoin="miter" stroke-miterlimit="10" stroke-dasharray="" stroke-dashoffset="0" font-family="none" font-weight="none" font-size="none" text-anchor="none" style="mix-blend-mode: normal"><g><path d="M140,9.90039l5.30078,34.5c1.6,0.2 4.69922,0.79922 8.19922,2.19922l6.30078,-35.90039c-3.8,-0.5 -7.7,-0.79883 -11.5,-0.79883zM135.90039,10.30078c-5,1.2 -18.80078,5.09922 -37.30078,13.69922c-18.1,8.4 -52.69883,47.80039 -66.79883,64.40039c-4.6,5.4 -7.60117,12.09961 -8.70117,19.09961c-0.6,4.1 -0.59883,8.20078 0.20117,12.30078l1.89844,10.59961c3.5,1.2 15.30039,4.90039 26.40039,1.40039l-0.79883,-16.40039c8.1,-7.4 20.89961,-19.70078 37.09961,-35.80078c6.1,-6.1 14.20039,-9.69922 22.90039,-10.19922h0.29883c3.5,-0.2 7.00117,-1.00078 10.20117,-2.30078c6.2,-2.6 11.49844,-7.09883 14.89844,-12.79883l5.10156,-8.5zM163.80078,11.30078l-6.40039,37c2.6,1.5 5.39922,3.39961 7.69922,6.09961c5.5,6.3 22.80039,23.89922 30.90039,32.19922c-0.2,-2.4 -0.10078,-4.79883 0.19922,-7.29883c0.4,-3.1 1.70078,-6.00039 3.80078,-8.40039l0.30078,-0.30078c5,-5.5 13.2,-6.6 19.5,-2.5c2.1,1.4 3.8,3.20039 5,5.40039l1.19922,-19.59961c0.3,-4.4 -0.70039,-8.80117 -2.90039,-12.70117c-2.6,-4.7 -6.79883,-8.39883 -11.79883,-10.29883l-13.30078,-5.20117c-0.1,0 -0.20078,-0.09922 -0.30078,-0.19922l-5.19922,-3.19922c-8.8,-5.4 -18.59922,-9.1 -28.69922,-11zM211.06055,69.69336c-2.88897,0.11821 -5.72383,1.35742 -7.86133,3.60742l-0.29883,0.29883c-1.6,1.7 -2.50078,3.90117 -2.80078,6.20117c-0.7,5.6 0.10117,11.39922 2.20117,16.69922l23.69922,60c0.1,0.2 0.09961,0.49922 0.09961,0.69922v13.30078l3.20117,65.80078c0.1,1.1 -0.70078,1.99961 -1.80078,2.09961l-20.5,2.09961l-15.80078,6c-0.4,0.2 -0.69922,0.59961 -0.69922,1.09961c0,0.6 0.49961,1.09961 1.09961,1.09961h35.59961c2.6,0 5.00078,-0.99883 6.80078,-2.79883l0.59961,-0.59961c1.6,-1.6 2.60078,-3.60078 2.80078,-5.80078l3.79883,-36c0.4,-3.6 0.60156,-7.4 0.60156,-11v-29.69922l-19.5,-84.40039c-0.6,-2.9 -2.30117,-5.40039 -4.70117,-6.90039c-2.0125,-1.3125 -4.29209,-1.89858 -6.53906,-1.80664zM228.40039,78.19922l-0.40039,6.90039l2,8.80078c0.8,0.1 1.69961,0.19922 2.59961,0.19922zM231,98.09961l9.30078,40.40039c0.9,-2.1 1.69883,-4.29961 2.29883,-6.09961c0.1,-0.2 0.20039,-0.39961 0.40039,-0.59961l6.5,-7.70117l-2.30078,-0.59961c-1.6,-0.5 -2.69883,-1.89961 -2.79883,-3.59961c0,-0.7 0.09961,-1.40078 1.09961,-4.80078c0.9,-3.2 3.2,-11.8 2.5,-13.5c-0.7,-1.1 -1.6,-2.00039 -2.5,-2.40039c-0.4,-0.2 -0.9,-0.29844 -1.5,-0.39844c-0.7,-0.1 -6.3,-0.40117 -13,-0.70117zM202.69922,108.19922c-2.8,3.4 -4.89883,7.30156 -6.29883,11.60156c-4.5,14.4 2.30039,28.39961 15.90039,32.59961c3.1,1 5.9,1.49961 8.5,1.59961zM189.19922,119.80078c-8,0 -14.39844,6.49844 -14.39844,14.39844c0,8 6.49844,14.40039 14.39844,14.40039c2.7,0 5.40156,-0.79922 7.60156,-2.19922c-5.3,-6.9 -7.30117,-16.50078 -4.70117,-26.30078c-0.9,-0.2 -1.90039,-0.29883 -2.90039,-0.29883zM25.90039,135l14.29883,81.40039v0.79883l-3.19922,14.20117c-0.1,0.6 -0.59922,1.20039 -1.19922,1.40039l-27.90039,11.79883c-0.7,0.3 -1.09961,0.90117 -1.09961,1.70117c0,1 0.79883,1.79883 1.79883,1.79883h42.70117c4.1,0 7.39961,-3.19883 7.59961,-7.29883l0.09961,-2.80078c0,-1 -0.10039,-1.90078 -0.40039,-2.80078l-5.19922,-14.69922c-0.1,-0.2 -0.09961,-0.39961 -0.09961,-0.59961l-1.70117,-83.90039c-3.5,1 -7.10039,1.40039 -10.40039,1.40039c-6.4,0 -11.99883,-1.30039 -15.29883,-2.40039zM218.40039,157.90039l-0.70117,67.40039c0,1 -0.79844,1.9 -1.89844,2l-14.70117,1.09961l-15.79883,3.69922c-0.2,0.1 -0.30117,0.39961 -0.20117,0.59961c0.1,0.2 0.3,0.4 0.5,0.5l24.5,2.90039l15.09961,-1.59961l-3.09961,-64v-12.40039h-0.29883c-1.1,0 -2.20039,-0.09922 -3.40039,-0.19922zM32.19922,193.80078l1.90039,24.59961c0.1,0.9 -0.50039,1.79961 -1.40039,2.09961l-24.19922,7c-0.4,0.2 -0.59961,0.59961 -0.59961,1.09961c0,0.7 0.59922,1.20117 1.19922,1.20117h23.5l0.70117,-0.30078l2.89844,-12.90039z"></path></g></g></svg>