<svg xmlns="http://www.w3.org/2000/svg" xmlns:xlink="http://www.w3.org/1999/xlink" viewBox="0,0,256,256" width="512px" height="512px" fill-rule="nonzero"><g fill="#8a8efa" fill-rule="nonzero" stroke="none" stroke-width="1" stroke-linecap="butt" stroke-linejoin="miter" stroke-miterlimit="10" stroke-dasharray="" stroke-dashoffset="0" font-family="none" font-weight="none" font-size="none" text-anchor="none" style="mix-blend-mode: normal"><g><path d="M27.90039,5.30078c-1.8,0 -3.40039,1.19844 -3.90039,2.89844c-1.9,6.7 -5.19922,19.00117 -5.19922,26.70117c0,11.2 -1,37.60039 -1,37.90039c0,0.3 -0.10078,0.7 -0.30078,1l-3.80078,6.29883c-1.3,2.1 -1.69883,4.59961 -1.29883,7.09961l1.5,8.60156c0.4,2.3 1.59883,4.39844 3.29883,5.89844l1.80078,1.60156c0.7,0.6 1.6,0.89883 2.5,0.79883c0.9,-0.1 1.70078,-0.49922 2.30078,-1.19922c0.6,-0.7 0.89922,-1.69961 0.69922,-2.59961l-1.69922,-11.90039c-0.1,-0.9 0.29922,-1.79961 1.19922,-2.09961c0.8,-0.4 1.80039,-0.2 2.40039,0.5l4.79883,5.39844c0.1,0.1 0.30039,0.20156 0.40039,0.10156c0.1,0 0.20078,-0.10117 0.30078,-0.20117c0,-0.1 0.1,-0.19883 0,-0.29883l-3.90039,-14.20117l-3,-5.90039c-0.2,-0.3 -0.19922,-0.69961 -0.19922,-1.09961c0.1,-1 2.09883,-25 6.29883,-33.5c2.4,-4.8 5.20117,-8.69883 7.20117,-11.29883l42,37.09961l0.09961,0.09961l12.90039,13.59961c2.3,2.4 5.69844,3.50117 8.89844,2.70117l1.20117,-0.30078c2.9,-0.7 5.39961,-2.8 6.59961,-5.5c1.4,-3.4 0.69922,-7.3 -1.80078,-10c-8.5,-9.1 -35.69961,-34.99961 -38.59961,-37.09961c-8,-6 -29.2,-20.69961 -32.5,-21.09961zM43.59961,35.5l-2.09961,4.09961c-0.1,0.1 -0.09922,0.20078 -0.19922,0.30078c-0.1,0.1 -5.20156,6.7 -9.10156,12.5c4.7,3.7 21.50078,15.49922 42.30078,16.69922v-0.29883l0.19922,-1.60156c0.1,-1 0.40156,-2.09961 0.60156,-3.09961zM100.40039,49.90039c4.5,4.4 8.39922,8.29883 10.69922,10.79883c3.6,3.9 4.69961,9.50039 2.59961,14.40039c-1.7,4 -5.19844,7 -9.39844,8l-1.20117,0.30078c-4.6,1.1 -9.59883,-0.40039 -12.79883,-3.90039l-11.40039,-12.19922c0,0.1 0.00039,0.19883 -0.09961,0.29883l-0.20117,1.59961c-1,7.7 2.60117,15.40156 9.20117,19.60156l14.19922,9.19922c1.8,1.2 3.49961,2.59961 5.09961,4.09961c5.5,5.5 9.49961,11.89961 12.09961,19.09961c4.6,-1.2 16.70117,-4.4 20.20117,-5.5c3.2,-1 14.00039,-6.49844 19.40039,-9.39844c-0.7,-2.2 -1.60078,-4.30078 -2.80078,-6.30078l-7.80078,-12.90039c-1.8,-2.9 -3.09844,-6.10039 -3.89844,-9.40039c-2.3,-9.7 -9.60156,-17.5 -19.10156,-20.5l-20.09961,-6.39844c-1.5,-0.5 -3.09922,-0.80039 -4.69922,-0.90039zM30.59961,56.40039c-1,6.3 -1.49922,12.2 -1.69922,14l2.79883,5.59961c0.1,0.1 0.10156,0.30039 0.10156,0.40039l1.5,5.40039c3.6,4.2 8.09922,7.29922 12.69922,8.69922c9.2,2.9 22.50039,-1.30039 28.40039,-8.90039c0.4,-0.6 0.90039,-1.19883 1.40039,-1.79883c-0.8,-2.2 -1.20039,-4.40117 -1.40039,-6.70117c-21,-1.1 -37.70078,-12.09922 -43.80078,-16.69922zM69.30078,91.09961c-5.1,2.8 -11.10078,4.40039 -16.80078,4.40039c-1.7,0 -3.30039,-0.10039 -4.90039,-0.40039c-0.9,5.3 1.80117,10.59961 6.70117,12.59961c2.9,1.2 5.99883,1.10039 8.79883,-0.09961c2.8,-1.2 5.00117,-3.39883 6.20117,-6.29883c1.5,-3.6 1.4,-7.40117 0,-10.20117zM27.80078,94.59961l0.69922,5.09961c0.3,2.2 -0.29922,4.30039 -1.69922,5.90039v108.5l21.5,-9.79883l0.89844,-14.10156c0.1,-1.8 0.1,-3.2 0,-4.5c0,-0.5 -0.09922,-0.89844 -0.19922,-1.39844l-8.69922,-45.80078c-0.2,-1.4 0.19961,-2.69961 1.09961,-3.59961l5.29883,-5.30078c1.6,-1.6 1.60156,-4.09922 0.10156,-5.69922l-0.10156,-0.09961l-5.69922,-7.20117c-3.2,-4.1 -5.50078,-8.69883 -6.80078,-13.79883l-1.69922,-6.60156c-0.2,0 -0.4,0.10156 -0.5,0.10156c-1.5,0.2 -3,-0.4 -4,-1.5zM159.80078,110.40039c-4.9,2.6 -15.60117,8.09922 -19.20117,9.19922c-3.6,1.1 -15.39922,4.3 -20.19922,5.5c0.4,1.5 0.79961,3.10117 1.09961,4.70117l0.59961,3.59961c0.1,0.6 0.20117,1.09922 0.20117,1.69922l6.39844,-2.69922c8,-3.6 17.10156,-4.1 25.60156,-1.5l6.79883,2.19922l-1,-19.90039c-0.1,-0.9 -0.19883,-1.79883 -0.29883,-2.79883zM228.63672,120.94141c-1.01875,0.01562 -2.03711,0.13437 -3.03711,0.35937c-0.4,0.1 -0.90039,0.19883 -1.40039,0.29883c-17.7,4 -34.69844,10.89961 -50.39844,20.59961l-12.70117,7.80078l0.20117,-12.40039l-8.30078,-2.59961c-7.5,-2.4 -15.49922,-1.89922 -22.69922,1.30078l-8,3.39844c-0.1,1.2 -0.30156,2.3 -0.60156,3.5c-0.7,2.8 -1.89961,5.40117 -3.59961,7.70117l-6.40039,9.09961l-0.59961,0.90039c-2.6,4.7 -3.09922,10.39922 -1.19922,15.69922l0.5,1.40039l-3.90039,1.40039l-0.5,-1.40039c-2.3,-6.4 -1.7,-13.3 1.5,-19c0.3,-0.5 0.50078,-0.90078 0.80078,-1.30078l2.5,-3.5c-2.2,1.6 -4.5,3.60156 -7,6.10156c-3.6,3.6 -6.30039,8.39883 -7.90039,14.29883c-2.4,8.5 -7.79961,15.90117 -15.09961,20.70117l-32.30078,21.29883l-0.5,-7.59961l-21.19922,9.59961v1.80078c0,6.1 1.39922,12.19922 4.19922,17.69922c2,4 6.00039,6.5 10.40039,6.5h1.09961c4.3,0 8.5,-0.7 12.5,-2c0.3,-0.1 40.7,-15.80039 49,-20.90039l37.19922,-22.79883c0.1,-0.1 0.20039,-0.10117 0.40039,-0.20117l23.80078,-8.5c11.5,-4.1 21.80039,-11.09922 29.90039,-20.19922l12,-13.59961c0.7,-1.3 1.39961,-2.40117 2.09961,-3.20117c9.1,-10.1 12.19883,-13.19844 12.29883,-13.39844l2.90039,2.89844c0,0 -3.19922,3.20117 -12.19922,13.20117c-0.8,0.8 -1.50117,2 -2.20117,3.5l28.5,-5.70117c1.3,-2.9 2.40078,-5.39844 3.30078,-7.39844c1,-2.2 1.50078,-4.70117 1.30078,-7.20117l-0.20117,-5.5c-0.2,-4.1 -2.39883,-7.79961 -5.79883,-10.09961c-2.55,-1.725 -5.60781,-2.60547 -8.66406,-2.55859zM236.80078,158.30078l-28.30078,5.69922c-5.1,14.7 -8.70078,42.49922 -9.80078,54.19922c0,0.2 -0.09922,0.50117 -0.19922,0.70117l-11.30078,24.59961c-0.4,1 -0.6,1.99961 -0.5,3.09961c0.3,3 2.80078,5.20117 5.80078,5.20117h49.19922c0.5,0 1,-0.4 1,-1c0,-0.4 -0.19961,-0.80039 -0.59961,-0.90039c-10,-3.7 -33,-13.59961 -31,-26.09961c1.4,-9.4 16.40117,-44.5 25.70117,-65.5z"></path></g></g></svg>