<svg xmlns="http://www.w3.org/2000/svg" xmlns:xlink="http://www.w3.org/1999/xlink" viewBox="0,0,256,256" width="512px" height="512px" fill-rule="nonzero"><g fill="#8a8efa" fill-rule="nonzero" stroke="none" stroke-width="1" stroke-linecap="butt" stroke-linejoin="miter" stroke-miterlimit="10" stroke-dasharray="" stroke-dashoffset="0" font-family="none" font-weight="none" font-size="none" text-anchor="none" style="mix-blend-mode: normal"><g><path d="M128,3.40039c-8.1,0 -14.59961,6.59961 -14.59961,14.59961c4.3,-2.8 9.29961,-4.5 14.59961,-4.5c5.3,0 10.29961,1.6 14.59961,4.5c0,-8 -6.49961,-14.59961 -14.59961,-14.59961zM128,17.69922c-12.8,0 -23.3,11.30039 -25,25.90039c5.2,-9.6 14.5,-15.79883 25,-15.79883c10.4,0 19.60039,5.79844 24.90039,14.89844c-2,-14.1 -12.40039,-25 -24.90039,-25zM128,32c-11.6,0 -21.89961,9.60078 -24.59961,22.80078c2.5,15.3 12.99961,31.29883 24.59961,31.29883c11.8,0 22.40078,-16.59961 24.80078,-32.09961c-2.7,-13 -12.80078,-22 -24.80078,-22zM117.5,87.09961v17.90039c0,5.8 4.7,10.5 10.5,10.5c5.8,0 10.5,-4.7 10.5,-10.5v-17.90039c-3.3,2.1 -6.8,3.30078 -10.5,3.30078c-3.7,-0.1 -7.2,-1.30078 -10.5,-3.30078zM113.09961,98.09961l-9.69922,1.90039l-6,32.30078l2.19922,29.19922l15.09961,1.90039l4.20117,-25c0.6,-3.5 3.59922,-6.09961 7.19922,-6.09961h1.80078h1.79883c3.6,0 6.60117,2.59961 7.20117,6.09961l4.19922,25l15.09961,-1.90039l2,-29.19922l-6.19922,-32.40039l-9.5,-1.80078v6.90039c0,8.1 -6.59922,14.69922 -14.69922,14.69922c-8.1,0 -14.70117,-6.59922 -14.70117,-14.69922zM156.59961,100.69922l5.90039,30.80078l14,32.80078l-3.59961,-0.70117l-31.20117,3.90039h-0.5c-2,0 -3.79961,-1.5 -4.09961,-3.5l-4.19922,-25c-0.2,-1.4 -1.40039,-2.49961 -2.90039,-2.59961v36.5l6.59961,4.09961c0.2,0.1 0.39961,0.19922 0.59961,0.19922h63.40039c1,0 1.8,-0.69961 2,-1.59961l1.09961,-4.69922c0.2,-0.5 0.2,-1 0,-1.5l-32,-65.20117v-0.09961c-0.1,-0.3 -0.39883,-0.49961 -0.79883,-0.59961zM99.09961,100.90039l-14.09961,2.69922c-0.3,0.1 -0.60078,0.29961 -0.80078,0.59961v0.10156l-32,65.19922c-0.2,0.4 -0.29922,0.90039 -0.19922,1.40039l1.09961,4.69922c0.2,1 1.1,1.59961 2,1.59961h63.40039c0.2,0 0.39961,-0.09922 0.59961,-0.19922l6.59961,-4.09961v-36.5c-1.2,0.1 -2.39922,1.19961 -2.69922,2.59961l-4.19922,25c-0.4,2.2 -2.40156,3.8 -4.60156,3.5l-31.19922,-3.90039l-3.59961,0.70117l14,-32.70117zM128,176.5l-6.5,4.09961c-0.8,0.5 -1.80078,0.80078 -2.80078,0.80078h-16.89844v8.40039h52.29883v-8.40039h-16.90039c-0.9,0 -1.89922,-0.30078 -2.69922,-0.80078zM99,193.90039l-56,15.59961c-6.5,3.3 -15.40039,9.59922 -15.40039,13.69922c-0.1,3.8 2.80078,5.30117 9.80078,8.70117c2.9,1.4 6.20039,2.99922 9.90039,5.19922c2.5,1.4 7.29961,2.10078 13.59961,2.30078c-1.9,-2.9 -4.20117,-7.3 -4.20117,-12c0,-4.1 1.20078,-7.90039 2.30078,-10.40039c0.1,-0.3 0.20078,-0.49922 0.30078,-0.69922l-5.5,0.59961l-0.5,-4.20117l28.29883,-3.09961h0.59961l54.40039,10.09961c0.7,0.1 1.40039,-0.09961 1.90039,-0.59961l5.40039,-5.40039c1.4,-1.4 3.29922,-1.99883 5.19922,-1.79883l14.59961,1.79883l20.5,0.90039c2.2,0.1 4.1,1.50039 5,3.40039c2.2,-0.8 5.6,-1.79961 8.5,-1.59961l-0.19922,4.19922c-2.6,-0.1 -6.19922,1.10039 -8.19922,1.90039c-0.6,1.5 -1.70078,2.70078 -3.30078,3.30078c2.3,2.3 5,5.99844 5,10.39844c0,4.2 -1.69922,8.30156 -3.19922,11.10156h6.09961c28.1,0 35.59961,-15.1 35.59961,-23c0,-2.3 -2.19922,-5.3 -6.19922,-8.5c-4.7,-3.7 -10.10078,-6.30078 -16.30078,-7.80078l-50,-14.09961zM81.80078,213.90039l-17.5,1.90039c-1,1.8 -3.40039,6.49961 -3.40039,11.59961c0,5.2 3.69922,10.2 5.19922,12c18.6,-0.3 45.40039,-3.99961 60.90039,-6.09961c5,-0.7 9.29922,-1.30117 12.19922,-1.70117c14.6,-1.7 38.30117,-7.79922 45.20117,-9.69922c0.7,-0.2 1.09961,-0.8 1.09961,-1.5c0,-0.8 -0.7,-1.5 -1.5,-1.5l-20.59961,-0.90039h-0.20117l-14.69922,-1.80078c-0.6,-0.1 -1.29922,0.10156 -1.69922,0.60156l-5.40039,5.39844c-1.5,1.5 -3.59961,2.10117 -5.59961,1.70117zM181.30078,227.09961c-10.5,2.7 -29.00156,7.20117 -41.60156,8.70117c-2.9,0.3 -7.19961,0.89961 -12.09961,1.59961c-12.8,1.8 -25.9,3.49922 -38,4.69922l-15.19922,4.80078c-1.5,0.5 -2.3,2 -2,3.5c0.4,1.6 1.9,2.59922 3.5,2.19922l33.79883,-7.29883c0.2,0 0.3,-0.1 0.5,0c0.5,0 42.40117,1.7 72.70117,2c1.2,-1.9 3.90039,-6.6 3.90039,-11c0,-4.3 -3.9,-7.90117 -5.5,-9.20117z"></path></g></g></svg>