<svg xmlns="http://www.w3.org/2000/svg" xmlns:xlink="http://www.w3.org/1999/xlink" viewBox="0,0,256,256" width="500px" height="500px" fill-rule="nonzero"><g fill="#8a8efa" fill-rule="nonzero" stroke="none" stroke-width="1" stroke-linecap="butt" stroke-linejoin="miter" stroke-miterlimit="10" stroke-dasharray="" stroke-dashoffset="0" font-family="none" font-weight="none" font-size="none" text-anchor="none" style="mix-blend-mode: normal"><g transform="scale(5.12,5.12)"><path d="M34.5,0c-3.6,0 -6.5,2.90039 -6.5,6.40039c0,5.5 4.99922,8.80039 8.19922,10.90039c0.9,0.6 1.60156,1 2.10156,1.5l0.59961,0.5l0.59961,-0.5c0.5,-0.4 1.29961,-0.9 2.09961,-1.5c3.4,-2.2 8.40039,-5.40039 8.40039,-10.90039c0,-3.5 -2.9,-6.40039 -6.5,-6.40039c-1.7,0 -3.3,0.70078 -4.5,1.80078c-1.2,-1.1 -2.8,-1.80078 -4.5,-1.80078zM34.5,2c1.5,0 2.79922,0.7 3.69922,2l0.80078,1.19922l0.80078,-1.19922c0.8,-1.2 2.19922,-2 3.69922,-2c2.5,0 4.5,2.00039 4.5,4.40039c0,4.4 -4.20078,7.19922 -7.30078,9.19922c-0.7,0.4 -1.19922,0.79961 -1.69922,1.09961c-0.5,-0.4 -0.99922,-0.69961 -1.69922,-1.09961c-3.1,-2 -7.30078,-4.79922 -7.30078,-9.19922c0,-2.4 2,-4.40039 4.5,-4.40039zM0,7v36h50v-30.36523c-0.59,0.857 -1.273,1.63284 -2,2.33984v20.99024l-13.12305,-10.375c1.56848,-1.36688 2.13841,-1.8636 4.04688,-3.52734l-1.4668,-1.36914c-4.32,3.765 -8.44409,7.35922 -9.12109,7.94922c-1.408,1.226 -2.80194,1.35938 -3.33594,1.35938c-0.533,0 -1.92694,-0.13237 -3.33594,-1.35937c-1.4,-1.219 -17.54106,-15.28572 -19.66406,-17.13672v-2.50586h24.32227c-0.156,-0.634 -0.25302,-1.301 -0.29102,-2zM2,14.15234c3.1834,2.77448 8.72004,7.59838 13.12109,11.43359l-13.12109,10.37891zM16.65625,26.92383c1.01605,0.88535 3.44866,3.00628 3.69727,3.22266c1.918,1.67 3.88948,1.85156 4.64648,1.85156c0.759,0 2.72948,-0.17961 4.64648,-1.84961c0.273,-0.23793 2.51567,-2.193 3.69727,-3.22266l14.65625,11.58789v2.48633h-46v-2.48633z"></path></g></g></svg>