<svg xmlns="http://www.w3.org/2000/svg" xmlns:xlink="http://www.w3.org/1999/xlink" viewBox="0 0 512 512" width="512px" height="512px"><defs><linearGradient id="NxxcIm_U-tBMA0zNcH4uEa" x1="240.144" x2="240.144" y1="480.842" y2="81.396" gradientUnits="userSpaceOnUse"><stop offset=".322" stop-color="#a163f5"/><stop offset=".466" stop-color="#b074ee"/><stop offset=".752" stop-color="#d8a1dd"/><stop offset=".898" stop-color="#efbad3"/></linearGradient><linearGradient id="NxxcIm_U-tBMA0zNcH4uEb" x1="255.996" x2="255.996" y1="480.842" y2="81.396" xlink:href="#NxxcIm_U-tBMA0zNcH4uEa"/></defs><path fill="url(#NxxcIm_U-tBMA0zNcH4uEa)" d="M243.286,241.922a5,5,0,0,0,4.75-6.565c-11.348-34.48-3.068-65.188-2.984-65.494a5,5,0,0,0-9.63-2.693c-.382,1.363-9.222,33.828,3.115,71.313A5,5,0,0,0,243.286,241.922Z"/><path fill="url(#NxxcIm_U-tBMA0zNcH4uEb)" d="M498.079,269.4c-30.9-23.641-56.313-26.22-71.584-24.565q1.313-1.821,2.555-3.687c30.1-45.191,18.623-94.91,16.017-104.419a7.4,7.4,0,0,0-7.355-5.478c-27.208.718-51.329,15.765-63.875,25.216a212.924,212.924,0,0,0-6.57-60.086,7.446,7.446,0,0,0-10.687-4.621,163.054,163.054,0,0,0-36.51,26.889c-11.993,11.9-20.486,24.584-25.446,37.9a279.2,279.2,0,0,0-30.4-69.784,7.448,7.448,0,0,0-11.773-1.13c-18.728,20.173-31.658,41.739-38.6,64.3-15.37-36.587-49.288-53.779-60.53-58.6a7.444,7.444,0,0,0-10.262,5.528,214.559,214.559,0,0,0-1.109,61.783c-14.28-10.055-41.738-26.539-69.3-27.386a7.462,7.462,0,0,0-7.521,6.1c-1.661,9.1-8.331,56.678,23.552,100.322,2.323,3.18,4.809,6.255,7.422,9.248-18.874-2.756-50.109-1.9-82.163,22.432a7.451,7.451,0,0,0-2.164,9.233c4.856,9.8,29.051,52.493,81.567,52.488a104.306,104.306,0,0,0,14.382-1.034,146.509,146.509,0,0,0-19.448,38.725,7.463,7.463,0,0,0,4.707,9.4,163.922,163.922,0,0,0,49.7,8c2.9,0,5.852-.088,8.85-.282,28.639-1.848,52.319-12.275,70.633-31.047-.877,17.779,3.691,44.174,29.449,71.3a8.284,8.284,0,0,0,10.987.932c20.667-15.531,32.59-36.3,34.481-60.05a89.448,89.448,0,0,0,0-14.035c24.543,25.494,54.116,32.148,78.274,32.147A142.147,142.147,0,0,0,419,378.17a7.464,7.464,0,0,0,4.7-9.377,157.167,157.167,0,0,0-18.456-38.424,103.709,103.709,0,0,0,14.868,1.117c52.4,0,75.576-43.13,80.194-53.021A7.491,7.491,0,0,0,498.079,269.4ZM370.728,185.938c.993-5.407,1.72-10.719,2.232-15.9,6.182-5.379,32.793-26.992,62.971-28.706,3.024,12.276,10.835,55.172-15.2,94.272-23.51,35.3-67.895,58.29-132.01,68.424,22.886-14.394,41.447-31.889,55.26-52.162A171.084,171.084,0,0,0,370.728,185.938Zm-71.048-6.632c3.422-42.171,44.829-69.207,58.75-77.145,3.136,12.8,9.235,45.1,2.463,81.971-9.234,50.276-38.224,89.485-86.159,116.605a23.161,23.161,0,0,0-1.99-1.313,139.512,139.512,0,0,0,27.45-62.7C303.225,218.754,303.047,199.477,299.68,179.306ZM219.8,167.732c4.565-25.544,17.242-50.018,37.7-72.789,6.951,11.63,23.039,41.22,30.674,77.291,10.331,48.8,1.687,90.507-25.669,124.025-.62-.044-1.24-.056-1.861-.052-5.5-6.275-25.087-30.153-35.7-63.04C217.746,210.9,216.019,188.888,219.8,167.732ZM152.366,101.87c14.28,6.712,48.3,26.678,57.081,67.248-3.385,21.926-1.352,44.608,6.083,67.47a198.177,198.177,0,0,0,34.281,62.332c-.236.126-.461.276-.693.411-48.287-27.156-79.372-66.255-92.373-116.281A208.416,208.416,0,0,1,152.366,101.87ZM74.6,141.364c30.987,2.045,62.822,26.069,69.6,31.452.806,4.177,1.75,8.431,2.873,12.749a189.356,189.356,0,0,0,30.843,65.153c14.257,19.325,32.5,36.142,54.35,50.156-64.108-10.508-109.661-33.713-135.506-69.09C69.3,194.2,72.758,153.537,74.6,141.364ZM21.708,276.043c18.56-13.578,38.9-20.342,60.522-20.1a86.76,86.76,0,0,1,27.369,4.5q18.757,16.476,44.6,28.241c-.148-.067-.3-.13-.451-.2a139.988,139.988,0,0,0-36.545,29.575C57.058,332.618,28.76,289.216,21.708,276.043ZM98.6,369.479c17.952-51.047,58.368-71.835,67.249-75.869q31,12.129,70.887,18.084a79.836,79.836,0,0,0-11.226,23.47C185.666,391.605,117.363,375.318,98.6,369.479Zm188.509-3.244c-1.643,20.643-11.5,38.1-29.293,51.912-18.207-19.642-27.057-41.722-25.607-63.938,1.36-20.815,11.467-37.984,20.284-45.127a13.163,13.163,0,0,1,8.314-2.914,13.505,13.505,0,0,1,9.73,4.109h0C283.789,324.013,288.26,351.788,287.11,366.235Zm126.262,3.242c-17.589,5.406-80.636,19.723-120.171-36.954a93.078,93.078,0,0,0-7.509-17.915q38.5-5.651,68.2-17.222a93.586,93.586,0,0,1,22.014,14.579C387.469,322.038,403.2,340.119,413.372,369.477Zm-17.049-51.02a118.863,118.863,0,0,0-30.417-26.146q30.522-13.995,50.229-34.943c-.018.019-.035.039-.053.059,5.078-2.075,33.694-11.533,74.257,18.66C483.67,289.283,456.542,333.078,396.323,318.457Z"/></svg>