<svg xmlns="http://www.w3.org/2000/svg" xmlns:xlink="http://www.w3.org/1999/xlink" viewBox="0,0,256,256" width="512px" height="512px" fill-rule="nonzero"><g fill="#8a8efa" fill-rule="nonzero" stroke="none" stroke-width="1" stroke-linecap="butt" stroke-linejoin="miter" stroke-miterlimit="10" stroke-dasharray="" stroke-dashoffset="0" font-family="none" font-weight="none" font-size="none" text-anchor="none" style="mix-blend-mode: normal"><g><path d="M114.07227,3.92188c-0.40313,-0.00937 -0.72305,0.17852 -0.87305,0.47852l-20.69922,27.69922l-0.09961,0.09961c-7.1,8 -16.70039,18.80156 -23.90039,27.10156c5.2,0.1 10.30078,1.49922 14.80078,4.19922c0.6,-0.6 1.19883,-1.3 1.79883,-2c3.5,-4 6.70117,-11.5 9.20117,-17.5c1,-2.4 1.99844,-4.69961 2.89844,-6.59961c1.7,-3.5 5.40117,-5.5 9.20117,-5c1.4,0.2 2.80039,-0.30039 3.90039,-1.40039l0.19922,-0.19922c1.1,-1.1 1.60078,-2.70078 1.30078,-4.30078l-0.90039,-4.40039c-0.4,-1.9 -0.10117,-3.99922 0.79883,-5.69922l2.5,-5.09961c0.3,-0.5 0.4,-1.00156 0.5,-1.60156l0.5,-4.39844c0.1,-0.6 -0.19922,-1.10078 -0.69922,-1.30078c-0.15,-0.05 -0.29336,-0.075 -0.42773,-0.07812zM158.5,5.30078l-0.19922,2.29883l2.39844,2.40039l4.90039,-1.09961l1.5,-2.70117zM125.59961,5.69922l-6.59961,2.40039l-0.19922,2.20117c-0.1,0.9 -0.30117,1.7 -0.70117,2.5l4.90039,1.29883l11.80078,-1h0.59961l33,7.09961l-0.80078,15.70117c0,0.2 -0.09961,0.39961 -0.09961,0.59961l-9.40039,25.5l-0.90039,3.40039c-0.9,3.5 0.90078,7.19961 4.30078,8.59961c2,0.9 4.19961,0.80039 6.09961,-0.09961c2.4,-1.1 4.00117,-3.4 4.20117,-6l3.09961,-34.5l-1.59961,-22.20117l-1.20117,-0.59961c-0.7,-0.4 -1.39922,-0.70039 -2.19922,-0.90039l-0.80078,1.5c-0.4,0.8 -1.19961,1.40156 -2.09961,1.60156l-6,1.29883c-0.2,0.1 -0.49922,0.09961 -0.69922,0.09961c-0.8,0 -1.60117,-0.29844 -2.20117,-0.89844l-3.09961,-3.10156c-0.3,-0.3 -0.49922,-0.7 -0.69922,-1h-18.90039c-0.2,0 -0.50117,0.00039 -0.70117,-0.09961zM178.09961,19.30078l0.80078,10.29883c2.9,-0.3 5.89883,0.00039 8.79883,0.90039l-2.5,-6zM180.41211,33.625c-0.40762,0.0123 -0.81289,0.03672 -1.21289,0.07422l-1.19922,12.70117c6.6,-3 12.79961,-4.10039 16.09961,-4.40039c-0.7,-2.7 -2.89883,-5.59922 -5.29883,-6.69922c-2.5375,-1.225 -5.53535,-1.76191 -8.38867,-1.67578zM194.80078,46c-3.2,0.4 -10.20117,1.49922 -17.20117,5.19922l-1.40039,15.30078c0.8,0.5 1.60078,0.99922 2.30078,1.19922c2.1,0.7 9.10078,2.80078 12.80078,0.30078c0.8,-0.5 1.69844,-3.79922 1.89844,-6.69922c0.1,-0.8 0.60039,-1.50078 1.40039,-1.80078l2.59961,-0.90039l-1.39844,-3.90039c-0.1,-0.2 -0.10156,-0.3 -0.10156,-0.5c0,-0.1 -0.39844,-4.29922 -0.89844,-8.19922zM65,63.40039c-3.3,3.8 -5.60078,6.6 -6.30078,7.5c0,0.2 0.10039,0.69961 0.40039,1.59961c1.4,3.6 3.90117,6.90078 7.20117,9.30078l35,26.69922c1.3,13 4.09844,41.49961 6.89844,48.59961c3.3,8.2 2.9,24.59961 2.5,32.09961h13.20117v-47.5c0,-5.1 8.19922,-14.19883 10.69922,-16.79883c0.5,-0.6 1.00078,-1.20039 1.30078,-1.90039c4,-7.8 6.39961,-14.50039 6.09961,-16.90039c-0.2,-1.4 -0.70039,-3.09961 -1.40039,-5.09961c-1.4,-3.7 -4.09961,-6.99922 -7.59961,-9.19922l-0.09961,-0.10156c-3.4,-2.1 -7.50039,-2.99922 -11.40039,-2.69922c-5.2,0.5 -10.50078,-0.90078 -14.80078,-3.80078l-30.79883,-15.29883c1.1,-0.8 2.60039,-1.90039 4.40039,-3.40039c-4,-2.1 -8.5,-3.19961 -13,-3.09961zM175.5,70.90039c-0.3,0.8 -0.6,1.49883 -1,2.29883c0.7,0.7 1.4,1.40117 2,2.20117c0.3,0.4 0.60039,0.79883 0.90039,1.29883l1.29883,-4.5c-0.5,-0.2 -0.99844,-0.3 -1.39844,-0.5c-0.7,-0.3 -1.30078,-0.49883 -1.80078,-0.79883zM156,75.09961l-2.69922,6.09961c-1.5,3.3 -3.3,6.40078 -5.5,9.30078l-0.90039,1.19922l2.19922,5.5c2.9,7.2 3.70039,15.00156 2.40039,22.60156c3,-0.6 5.89961,-1.10156 8.09961,-1.60156c3.4,-0.6 6.39961,-1.89922 9.09961,-3.69922c1.1,-0.7 2.20039,-1.99922 3.40039,-3.69922c4.7,-6.9 6.30078,-15.90117 4.30078,-24.70117c-0.7,-3.7 -1.80117,-6.49883 -3.20117,-8.29883c-0.4,-0.6 -0.9,-1.10156 -1.5,-1.60156c-0.7,0.6 -1.39883,1.00039 -2.29883,1.40039c-1.6,0.7 -3.20039,1.09961 -4.90039,1.09961c-1.6,0 -3.09961,-0.29844 -4.59961,-0.89844c-1.5,-0.7 -2.80039,-1.60117 -3.90039,-2.70117zM144,95.5l-0.90039,1.19922c0.5,0.9 1.00039,1.90039 1.40039,2.90039c0.9,2.3 1.39922,4.30039 1.69922,5.90039c0.6,3.7 -2.2,10.6 -5,16.5c1.9,-0.4 4.00156,-0.90078 6.10156,-1.30078c1.6,-7.4 0.99961,-14.9 -1.90039,-22zM110.5,193.5l-0.19922,2.69922c-0.5,6.8 0.09883,13.50156 1.79883,20.10156l0.40039,1.59961c1.4,5.4 2.09961,10.9 2.09961,16.5v13.5c0,0.8 0.30039,1.59922 0.90039,2.19922c0.7,0.7 1.50078,1 2.30078,1h28.79883l-11.29883,-3c-0.5,-0.1 -1.10156,-0.29961 -1.60156,-0.59961l-7.09961,-3.5c-3.1,-1.6 -4.99883,-4.80078 -4.79883,-8.30078l2,-42.19922z"></path></g></g></svg>