<svg xmlns="http://www.w3.org/2000/svg" xmlns:xlink="http://www.w3.org/1999/xlink" viewBox="0,0,256,256" width="512px" height="512px" fill-rule="nonzero"><g fill="#8a8efa" fill-rule="nonzero" stroke="none" stroke-width="1" stroke-linecap="butt" stroke-linejoin="miter" stroke-miterlimit="10" stroke-dasharray="" stroke-dashoffset="0" font-family="none" font-weight="none" font-size="none" text-anchor="none" style="mix-blend-mode: normal"><g><path d="M144.27344,4.5625c-0.12344,0 -0.24805,0.01211 -0.37305,0.03711c-0.4,0.1 -0.8,0.29961 -1,0.59961l-1.5,5.80078c-1.6,6 -5.29961,11.2 -10.59961,14.5c-0.4,0.4 -0.60078,0.99961 -0.30078,1.59961l3.30078,6.30078c0.6,1.1 0.8,2.39961 0.5,3.59961c-1,4.9 -2.70156,24.90039 -2.10156,33.40039c0.2,2.4 0.40117,4.4 0.70117,6l11.40039,-1.59961c-1.1,-3.2 -3.40039,-35.1 -3.90039,-41.5v-0.10156c0,-0.3 0.00039,-0.69844 5.40039,-25.89844c0,-0.1 0.09961,-0.20078 0.09961,-0.30078c0.3,-0.8 0.00039,-1.69961 -0.59961,-2.09961c-0.3,-0.225 -0.65703,-0.33789 -1.02734,-0.33789zM145.5,78.69922l-11.69922,1.60156c0,0.1 0.09961,0.29844 0.09961,0.39844c1,2.6 -1.19961,40.10117 -3.09961,44.70117c-0.5,1.2 -1.20078,2.4 -1.80078,3.5c-2.1,3.6 -4.09961,7.00039 -1.59961,11.90039c2.9,5.6 6.9,9.2 8.5,10.5l19.40039,-3.20117c-0.6,-4.1 -1.9,-13.10039 -2,-14.90039c0,-0.7 -0.10078,-2.29922 -0.30078,-4.69922c-0.3,-5.5 -0.80039,-14.8 -1.40039,-23.5c-0.5,-7.3 -3.59961,-18.40078 -6.09961,-26.30078zM156.09961,152.30078l-18,3l0.09961,0.39844c1.4,4.3 2.00078,8.70117 1.80078,13.20117l-0.09961,1.69922l22.09961,0.40039c-1,-3.2 -2.50039,-8.20078 -3.40039,-10.30078c-0.9,-2.3 -2,-6.09844 -2.5,-8.39844zM139.5,174.5l-3.80078,17.09961c0.4,-0.2 0.80117,-0.4 1.20117,-0.5l1.79883,-0.59961c3.7,-1.3 7.70156,-0.50039 10.60156,2.09961c2.6,2.3 3.9,5.80078 3.5,9.30078l-0.5,4.69922c0,0.4 -0.1,0.80117 0,1.20117c6.5,-4.1 12.79922,-9.20117 13.19922,-11.70117c0.5,-3.7 -1.29961,-7.39883 -2.09961,-8.79883c-0.6,-1 -0.90078,-2.20039 -0.80078,-3.40039l0.20117,-9zM142.52344,194.13867c-0.87129,-0.05508 -1.76055,0.06133 -2.62305,0.36133l-1.80078,0.59961c-1.4,0.5 -2.7,1.50078 -3.5,2.80078c-1.4,2.2 -1.59922,5 -0.69922,7.5l5.40039,13.59961c1.7,4.4 2.69922,9.10078 2.69922,13.80078l0.19922,11.79883l-30.69922,1.80078c-1.3,0 -2.60078,0.19922 -3.80078,0.69922l-6,2.30078c-0.1,0.1 -0.29844,0.09961 -0.39844,0.09961l-9.70117,1.40039v0.09961l10.59961,1.09961l9.80078,-3.19922h0.59961l21.70117,3.09961l13.79883,0.30078l1.30078,-21.20117c0.2,-1.8 0.19961,-3.40039 0.09961,-4.90039l-1.30078,-18v-2l0.5,-4.69922c0.2,-2.1 -0.59922,-4.29922 -2.19922,-5.69922c-1.125,-1 -2.52441,-1.57031 -3.97656,-1.66211zM119.19922,200.40039c-1.7,0.2 -2.99961,1.40039 -3.59961,2.90039c2,-0.1 3.79961,-0.2 5.59961,0c1.1,0.1 2.10156,0.29961 3.10156,0.59961c-0.2,-1 -0.80117,-1.89961 -1.70117,-2.59961c-1,-0.7 -2.20039,-1.00039 -3.40039,-0.90039zM118.0293,207.28906c-6.30821,0.18321 -12.90508,3.48555 -14.83008,10.31055c-1.1,4.1 -0.19961,9.30117 2.40039,13.20117c0.6,0.8 1.40078,1.49961 2.30078,2.09961c3,-4.9 11.49883,-18.70039 15.79883,-24.90039c-1,-0.3 -1.9,-0.39961 -3,-0.59961c-0.875,-0.1 -1.76875,-0.1375 -2.66992,-0.11133zM127.5,209.59961c-3.8,5.2 -12.6,19.5 -16,25c0.5,0 0.89922,0.09961 1.19922,0.09961c3.8,0.1 10.4,-1.19922 10.5,-1.19922c0.3,-0.1 0.50078,-0.1 0.80078,0l3.69922,0.69922l0.70117,-2.09961c0.2,-0.6 0.59961,-0.99922 1.09961,-1.19922c1.7,-0.8 6.19961,-3.49961 7.09961,-6.59961c0.1,-0.2 0.09961,-0.40117 0.09961,-0.70117c-0.3,-1.1 -0.69961,-2.09961 -1.09961,-3.09961l-2.40039,-6c-0.7,-1 -1.49883,-1.8 -2.29883,-2.5c-1,-0.9 -2.10039,-1.70039 -3.40039,-2.40039zM137.90039,229.80078c-2,2.2 -4.50039,3.69844 -5.90039,4.39844l-1,3c-0.3,1 -1.30039,1.60039 -2.40039,1.40039l-5.09961,-1c-1.5,0.3 -6.8,1.20117 -10.5,1.20117h-0.5c-1.1,0 -2.3,-0.30117 -3.5,-0.70117l-10.5,3.59961l-7.5,1.30078l9.59961,0.90039l6.20117,-2.70117l2.89844,0.60156c1.3,0.2 2.60078,0.29883 3.80078,0.29883l24.80078,-0.69922l-0.20117,-8.59961c0,-1 -0.09922,-2 -0.19922,-3z"></path></g></g></svg>